<?xml version="1.0" encoding="iso-8859-1"?>
<!-- Generator: Adobe Illustrator 19.0.0, SVG Export Plug-In . SVG Version: 6.00 Build 0)  -->
<svg version="1.1" id="Capa_1" xmlns="http://www.w3.org/2000/svg" xmlns:xlink="http://www.w3.org/1999/xlink" x="0px" y="0px"
	 viewBox="0 0 512 512" style="enable-background:new 0 0 512 512;" xml:space="preserve">
<circle style="fill:#00D4D1;" cx="256" cy="256" r="256"/>
<path style="fill:#009CA0;" d="M512,256c0-23.984-3.307-47.193-9.475-69.208L440.733,125h-272.29v92.596H71.267v154.208
	l135.435,135.435C222.656,510.351,239.135,512,256,512C397.385,512,512,397.385,512,256z"/>
<polygon style="fill:#FFFFFF;" points="440.733,125 168.443,125 168.443,322.625 353.172,322.625 353.172,373.689 400.714,322.625 
	440.733,322.625 "/>
<polygon style="fill:#FFF4AA;" points="440.73,125 440.73,322.622 400.711,322.622 353.168,373.686 353.168,322.622 
	304.591,322.622 304.591,125 "/>
<rect x="229.38" y="183.46" style="fill:#FF6900;" width="150.41" height="22.03"/>
<rect x="304.59" y="183.45" style="fill:#D43704;" width="75.2" height="22.04"/>
<rect x="229.38" y="237.81" style="fill:#FF6900;" width="150.41" height="22.03"/>
<rect x="304.59" y="237.81" style="fill:#D43704;" width="75.2" height="22.04"/>
<polygon style="fill:#E9336D;" points="283.737,217.596 71.267,217.596 71.267,371.804 213.588,371.804 260.176,421.843 
	260.176,371.804 283.737,371.804 "/>
<polygon style="fill:#B12E65;" points="283.735,217.599 283.735,371.805 260.172,371.805 260.172,421.845 213.591,371.805 
	177.5,371.805 177.5,217.599 "/>
<rect x="115.68" y="263.3" style="fill:#FFFFFF;" width="123.65" height="18.11"/>
<rect x="177.5" y="263.3" style="fill:#FFF4AA;" width="61.827" height="18.11"/>
<rect x="115.68" y="307.98" style="fill:#FFFFFF;" width="123.65" height="18.11"/>
<rect x="177.5" y="307.98" style="fill:#FFF4AA;" width="61.827" height="18.12"/>
<g>
</g>
<g>
</g>
<g>
</g>
<g>
</g>
<g>
</g>
<g>
</g>
<g>
</g>
<g>
</g>
<g>
</g>
<g>
</g>
<g>
</g>
<g>
</g>
<g>
</g>
<g>
</g>
<g>
</g>
</svg>
