<?xml version="1.0" standalone="no"?>
<!DOCTYPE svg PUBLIC "-//W3C//DTD SVG 20010904//EN"
 "http://www.w3.org/TR/2001/REC-SVG-20010904/DTD/svg10.dtd">
<svg version="1.0" xmlns="http://www.w3.org/2000/svg"
 width="1844.000000pt" height="1239.000000pt" viewBox="0 0 1844.000000 1239.000000"
 preserveAspectRatio="xMidYMid meet">
<metadata>
Created by potrace 1.15, written by Peter Selinger 2001-2017
</metadata>
<g transform="translate(0.000000,1239.000000) scale(0.100000,-0.100000)"
fill="#000000" stroke="none">
<path d="M4365 12131 c-53 -5 -108 -19 -165 -41 -70 -27 -96 -44 -146 -94
-101 -102 -124 -178 -150 -495 -8 -102 -19 -196 -23 -207 -8 -18 -21 -23 -73
-28 -101 -11 -328 -10 -339 1 -6 6 -14 79 -18 164 -12 221 -44 304 -157 409
-62 58 -104 83 -188 115 l-66 25 -765 0 -764 0 -73 -26 c-141 -51 -229 -130
-292 -264 -29 -63 -30 -71 -37 -250 -7 -165 -9 -186 -26 -200 -13 -10 -80 -24
-184 -39 -318 -45 -494 -105 -609 -208 -100 -90 -145 -182 -192 -393 -25 -112
-32 -169 -38 -335 -10 -253 -10 -9103 0 -9360 6 -172 10 -203 42 -326 45 -171
90 -261 178 -350 109 -110 201 -152 435 -197 l140 -27 8290 -3 c7323 -2 8300
-1 8375 12 47 8 117 20 155 27 351 59 533 256 574 621 6 48 16 98 23 110 20
35 19 10477 -1 10501 -8 10 -17 61 -22 129 -26 352 -174 563 -443 632 -53 14
-150 35 -215 46 -117 20 -152 20 -4112 19 -4389 -1 -5360 -7 -5474 -34 -139
-34 -263 -112 -350 -223 -54 -67 -156 -270 -219 -434 -24 -64 -52 -131 -61
-149 l-17 -32 -197 6 c-108 3 -217 11 -242 17 l-46 12 -12 144 c-31 370 -81
552 -172 626 -51 41 -161 77 -269 88 -117 11 -1944 21 -2055 11z m13115 -828
c8 -8 6 -2851 -3 -2859 -4 -4 -791 -9 -1750 -11 -958 -2 -1756 -6 -1773 -9
-41 -6 -42 -5 62 -229 113 -247 150 -334 223 -520 35 -88 71 -180 81 -205 38
-94 130 -392 174 -565 26 -99 56 -214 66 -255 11 -41 27 -122 35 -180 9 -58
25 -163 35 -235 31 -203 43 -462 37 -745 -7 -271 -12 -339 -52 -600 -38 -248
-69 -371 -160 -638 -225 -662 -559 -1217 -1086 -1807 -200 -225 -591 -598
-779 -744 -81 -64 -130 -110 -130 -125 0 -20 712 -26 2992 -26 1359 0 2006 -3
2019 -10 18 -10 19 -25 19 -363 0 -204 -4 -358 -10 -367 -8 -13 -824 -15
-7227 -18 -3970 -1 -7704 1 -8298 5 l-1080 8 -3 351 c-2 318 -1 353 14 365 15
12 501 14 3196 11 l3178 -3 0 38 c0 21 -7 49 -16 61 -8 12 -81 78 -162 146
-174 146 -532 493 -695 673 -483 535 -875 1183 -1065 1763 -111 338 -177 629
-201 885 -29 310 -19 911 19 1170 93 624 293 1252 620 1945 99 209 105 187
-52 194 -73 3 -1191 7 -2485 8 -1293 2 -2355 7 -2360 11 -9 10 -11 1972 -1
1982 20 20 522 25 3593 35 2429 7 3388 13 3435 21 107 19 180 64 239 148 54
76 70 150 125 565 8 59 19 113 26 120 8 8 610 13 2303 17 2401 6 6888 1 6897
-8z"/>
<path d="M14738 10758 c-20 -35 -19 -1815 1 -1827 8 -5 95 -12 195 -16 242
-10 1982 -2 1993 8 11 11 11 1833 0 1844 -5 4 -496 9 -1092 11 l-1084 3 -13
-23z"/>
<path d="M9335 9819 c-489 -77 -871 -191 -1265 -377 -425 -200 -815 -485
-1185 -863 -482 -493 -835 -1108 -1013 -1764 -102 -376 -119 -490 -134 -910
-23 -671 23 -1027 207 -1580 149 -450 404 -905 723 -1288 104 -125 353 -378
492 -501 300 -264 700 -513 1086 -675 629 -263 1215 -361 1929 -322 306 17
675 83 940 168 899 289 1647 836 2179 1593 209 296 416 708 529 1051 154 465
226 948 214 1429 -12 460 -76 839 -213 1248 -221 666 -590 1235 -1117 1723
-314 291 -579 475 -956 663 -361 181 -732 301 -1164 378 l-182 32 -505 2
c-278 1 -532 -2 -565 -7z m942 -943 c550 -73 972 -235 1449 -558 137 -93 291
-226 459 -399 621 -638 948 -1517 896 -2409 -36 -621 -232 -1173 -604 -1699
-214 -303 -468 -551 -792 -773 -236 -162 -459 -276 -765 -393 -72 -28 -369
-106 -455 -120 -421 -68 -835 -61 -1240 20 -461 92 -967 334 -1355 646 -285
229 -572 561 -755 873 -184 314 -316 667 -389 1041 -56 286 -68 512 -45 823
60 820 453 1613 1069 2155 238 209 415 328 700 472 166 84 250 118 417 174
280 94 389 118 638 145 77 9 156 18 175 20 72 9 489 -4 597 -18z"/>
<path d="M9520 7434 c-8 -3 -37 -15 -65 -27 -305 -131 -863 -751 -1570 -1743
l-156 -219 -144 -12 c-263 -22 -393 -68 -487 -172 -62 -70 -203 -280 -218
-327 -11 -32 -10 -39 8 -63 32 -43 92 -35 332 45 l205 68 135 0 c209 1 415
-33 900 -145 372 -87 483 -102 547 -78 30 11 373 348 373 366 0 6 -20 13 -44
16 -24 4 -257 58 -518 121 -527 127 -587 140 -738 157 -58 6 -107 13 -109 15
-18 17 424 603 830 1099 151 184 429 470 486 499 37 18 59 20 68 6 10 -16 -47
-119 -203 -365 -80 -126 -171 -279 -203 -340 -137 -259 -159 -462 -48 -441 84
16 242 136 385 293 l77 85 -30 30 -30 30 90 162 c121 216 266 514 297 606 19
59 25 96 25 174 l0 99 -37 30 c-30 24 -49 31 -90 33 -29 2 -60 1 -68 -2z"/>
<path d="M11195 7270 c-387 -44 -736 -127 -942 -227 -212 -101 -407 -440 -308
-533 l25 -23 272 7 c302 8 432 17 445 29 18 19 -33 36 -125 42 -166 11 -205
27 -139 59 36 16 306 69 577 112 206 32 196 33 164 -18 -24 -37 -548 -713
-579 -747 -8 -8 -67 -21 -144 -32 -73 -10 -149 -23 -170 -29 -78 -21 -241
-228 -241 -307 0 -38 21 -57 96 -87 32 -13 58 -27 57 -31 0 -3 -46 -67 -101
-140 -252 -336 -372 -555 -334 -611 25 -38 98 -44 157 -13 86 46 124 87 176
192 55 108 179 299 268 412 l56 70 278 -128 c154 -70 496 -232 760 -359 634
-303 655 -312 684 -299 40 18 55 73 61 216 5 151 -7 231 -45 275 -67 80 -654
343 -1220 546 -131 47 -253 91 -272 98 -33 13 -30 13 70 20 746 51 1295 155
1597 304 86 43 190 128 261 215 100 120 153 272 154 442 1 143 -20 194 -127
301 -71 70 -92 85 -168 117 -100 41 -284 89 -438 113 -122 19 -672 28 -805 14z
m805 -471 c300 -27 470 -99 470 -197 0 -157 -280 -300 -885 -451 -199 -49
-693 -147 -701 -138 -2 1 69 95 157 207 261 332 319 428 319 524 l0 44 83 6
c45 4 102 8 127 9 111 8 325 6 430 -4z"/>
</g>
</svg>
